<?xml version="1.0" standalone="no"?><!DOCTYPE svg PUBLIC "-//W3C//DTD SVG 1.1//EN" "http://www.w3.org/Graphics/SVG/1.1/DTD/svg11.dtd"><svg t="1599096193227" class="icon" viewBox="0 0 1024 1024" version="1.1" xmlns="http://www.w3.org/2000/svg" p-id="1261" xmlns:xlink="http://www.w3.org/1999/xlink" width="200" height="200"><defs><style type="text/css"></style></defs><path d="M960 984v40H64v-40c0-13.254 10.746-24 24-24h40V240c0-26.51 21.49-48 48-48h176V48c0-26.51 21.49-48 48-48h224c26.51 0 48 21.49 48 48v144h176c26.51 0 48 21.49 48 48v720h40c13.254 0 24 10.746 24 24zM680 384h-80c-13.254 0-24 10.746-24 24v80c0 13.254 10.746 24 24 24h80c13.254 0 24-10.746 24-24v-80c0-13.254-10.746-24-24-24z m-336 128h80c13.254 0 24-10.746 24-24v-80c0-13.254-10.746-24-24-24h-80c-13.254 0-24 10.746-24 24v80c0 13.254 10.746 24 24 24z m208 256h-80c-13.254 0-24 10.746-24 24v168h128v-168c0-13.254-10.746-24-24-24z m128-192h-80c-13.254 0-24 10.746-24 24v80c0 13.254 10.746 24 24 24h80c13.254 0 24-10.746 24-24v-80c0-13.254-10.746-24-24-24z m-232 24c0-13.254-10.746-24-24-24h-80c-13.254 0-24 10.746-24 24v80c0 13.254 10.746 24 24 24h80c13.254 0 24-10.746 24-24v-80zM428 192h52v52a12 12 0 0 0 12 12h40a12 12 0 0 0 12-12V192h52a12 12 0 0 0 12-12V140a12 12 0 0 0-12-12h-52V76a12 12 0 0 0-12-12h-40a12 12 0 0 0-12 12v52h-52a12 12 0 0 0-12 12v40a12 12 0 0 0 12 12z" p-id="1262"></path></svg>