<?xml version="1.0" standalone="no"?><!DOCTYPE svg PUBLIC "-//W3C//DTD SVG 1.1//EN" "http://www.w3.org/Graphics/SVG/1.1/DTD/svg11.dtd"><svg t="1598597480455" class="icon" viewBox="0 0 1024 1024" version="1.1" xmlns="http://www.w3.org/2000/svg" p-id="6579" width="200" height="200" xmlns:xlink="http://www.w3.org/1999/xlink"><defs><style type="text/css"></style></defs><path d="M512 0c282.752 0 512 229.312 512 512 0 282.752-229.248 512-512 512s-512-229.248-512-512C0 229.312 229.248 0 512 0zM960.576 512c0-247.744-200.832-448.576-448.576-448.576C264.192 63.424 63.424 264.256 63.424 512S264.256 960.64 512 960.64 960.576 759.744 960.576 512z" p-id="6580" fill="#e6e6e6"></path><path d="M711.872 473.856l58.368 0c1.344-2.88 2.88-5.248 4.608-6.976 4.288-4.096 9.984-6.272 17.024-6.272 6.72 0 12.032 1.856 15.936 5.76 3.84 3.904 5.76 9.088 5.76 15.488 0 6.72-2.496 12.608-7.68 17.472-5.12 4.992-11.648 7.424-19.392 7.424l-0.128 0 0 38.976c3.264-0.64 6.144-1.088 8.512-1.088 8.768 0 15.616 2.816 20.736 8.192 4.992 5.376 7.488 12.928 7.488 22.784 0 9.536-2.624 17.344-7.872 23.168-5.248 5.824-11.968 8.704-19.776 8.704-7.616 0-13.824-2.24-18.624-6.848-1.6-1.408-3.2-3.52-4.608-6.016l-61.376 0c3.456 8.512 7.744 15.872 12.864 22.208 7.04 8.768 16.256 15.296 27.52 19.904 11.136 4.608 26.368 6.848 45.696 6.848 19.84 0 35.84-3.2 47.936-9.344 12.224-6.208 21.504-14.784 28.032-26.24 6.592-11.392 9.728-23.168 9.728-35.456 0-9.856-1.984-18.368-5.888-25.472-4.032-7.104-9.344-12.8-16.512-17.152-4.352-2.688-10.624-5.056-18.752-7.104 9.984-5.632 17.536-12.096 22.656-19.584 5.056-7.488 7.552-15.68 7.552-24.896 0-15.68-6.208-28.672-18.56-38.976-12.224-10.368-32.448-15.488-60.096-15.488-24.128 0-42.752 4.736-56 14.208C725.12 446.656 716.736 458.624 711.872 473.856zM512 95.808c229.888 0 416.256 186.368 416.256 416.192 0 229.888-186.368 416.256-416.256 416.256-229.824 0-416.192-186.368-416.192-416.256C95.808 282.176 282.112 95.808 512 95.808zM772.48 331.328 772.48 224.32l-24.256 0c-3.136 6.656-26.112 25.024-36.032 28.224L712.192 276.48c6.656-1.984 12.224-4.16 16.896-6.4 4.352-2.24 9.088-5.248 13.888-8.832l0 70.144 29.504 0L772.48 331.328zM588.224 525.888 574.976 496.32 550.528 507.328C544.896 502.72 538.176 499.968 531.072 499.2L419.968 250.88l-33.28 14.848 111.04 248.32C493.632 519.872 491.2 526.72 490.88 533.888L309.056 615.232l13.248 29.632 181.888-81.344C509.696 568 516.416 570.88 523.52 571.648l15.232 33.984 33.28-14.848L556.736 556.8c4.224-5.952 6.656-12.8 6.976-19.904L588.224 525.888z" p-id="6581" fill="#e6e6e6"></path><path d="M529.92 533.824m-16.064 0a0.251 0.251 0 1 0 32.128 0 0.251 0.251 0 1 0-32.128 0Z" p-id="6582" fill="#e6e6e6"></path></svg>